<?xml version="1.0" encoding="utf-8"?>
<!-- Generator: Adobe Illustrator 21.1.0, SVG Export Plug-In . SVG Version: 6.00 Build 0)  -->
<svg version="1.1" xmlns="http://www.w3.org/2000/svg" xmlns:xlink="http://www.w3.org/1999/xlink" x="0px" y="0px"
	 viewBox="0 0 400 400" style="enable-background:new 0 0 400 400;" xml:space="preserve">
<style type="text/css">
	.st0{display:none;}
	.st1{display:inline;fill:#FFD731;}
	.st2{fill:url(#SVGID_1_);}
	.st3{fill:#FFFFFF;}
	.st4{fill:#EFEFEF;}
	.st5{fill:#C1C1C1;}
	.st6{fill:#B6BABA;}
	.st7{fill:#A5A5A5;}
	.st8{fill:#DDDDDD;}
	.st9{fill:url(#path1948_1_);}
	.st10{fill:url(#path1950_1_);}
</style>
<g id="Fondo" class="st0">
	<rect x="-136" y="-93" class="st1" width="691" height="598"/>
</g>
<g id="Base">
	<linearGradient id="SVGID_1_" gradientUnits="userSpaceOnUse" x1="200" y1="400" x2="200" y2="-9.094947e-13">
		<stop  offset="0" style="stop-color:#CCE0F4"/>
		<stop  offset="4.376764e-02" style="stop-color:#C3DCF2"/>
		<stop  offset="0.1166" style="stop-color:#A9D2EE"/>
		<stop  offset="0.2094" style="stop-color:#80C2E7"/>
		<stop  offset="0.3176" style="stop-color:#47ACDE"/>
		<stop  offset="0.34" style="stop-color:#3AA7DC"/>
		<stop  offset="0.557" style="stop-color:#239ED8"/>
		<stop  offset="0.603" style="stop-color:#1E9CD7"/>
		<stop  offset="0.7496" style="stop-color:#0075BE"/>
		<stop  offset="0.9944" style="stop-color:#005B97"/>
	</linearGradient>
	<path class="st2" d="M400,200c0,3.3-0.1,6.7-0.3,10c-0.4,8.8-1.4,17.5-3,26c-0.6,3.3-1.3,6.5-2,9.8c-0.3,1.1-0.5,2.3-0.8,3.4
		c-1,3.9-2.1,7.7-3.3,11.5c-0.3,1.1-0.7,2.2-1.1,3.2c-0.5,1.5-1,3.1-1.6,4.6c-4.1,11.4-9.3,22.3-15.3,32.6c-0.6,1-1.2,2-1.7,2.9
		c-10.9,18-24.6,34.1-40.5,47.7c-2.4,2.1-4.8,4.1-7.3,6c-5.2,4-10.5,7.8-16.1,11.4c-7,4.4-14.2,8.4-21.8,12c-6.3,3-12.9,5.7-19.6,8
		c0,0,0,0,0,0c-6.1,2.1-12.3,3.9-18.6,5.5h0c-15.1,3.6-30.8,5.6-47,5.6c-16.7,0-33-2-48.5-5.9c-4.7-1.2-9.3-2.5-13.8-4h0
		c-8.3-2.7-16.3-5.9-24.1-9.7c-7.1-3.4-14-7.2-20.6-11.4c-4.6-2.9-9-6-13.3-9.2c-2.5-1.9-5-3.8-7.4-5.9
		c-22.3-18.5-40.4-41.7-53-68.1c-0.4-0.9-0.8-1.8-1.2-2.7c-1.4-3-2.7-6-3.9-9c-0.8-2-1.5-3.9-2.3-5.9c-0.7-1.9-1.3-3.8-2-5.7
		c-0.2-0.7-0.5-1.4-0.7-2.1c-1-3-1.8-6.1-2.6-9.1c-0.7-2.8-1.4-5.6-2-8.5c-0.6-2.8-1.2-5.7-1.7-8.6C1,223,0,211.6,0,200
		C0,89.5,89.5,0,200,0S400,89.5,400,200z"/>
</g>
<g id="Nubes">
	<path class="st3" d="M399.8,210c-0.4,8.8-1.4,17.5-3,26c-0.6,3.3-1.3,6.5-2,9.8c-0.3,1.1-0.5,2.3-0.8,3.4c-1,3.9-2.1,7.7-3.3,11.5
		c-0.3,1.1-0.7,2.2-1.1,3.2c-0.5,1.5-1,3.1-1.6,4.6c-4.1,11.4-9.3,22.3-15.3,32.6c-0.6,1-1.2,2-1.7,2.9c-5.1,3-10.6,5.9-16.2,8.7
		c-0.6-0.3-1.1-0.7-1.6-1c-5.3,2.9-12.1,3.7-19.3,3.1c-2.5-0.2-4.9-0.6-7.1-1.2c-4.4-1.2-8.1-3.1-10.5-5.5c-0.8,0.9-2.4,1.6-4.2,1.9
		c-1.3,0.2-2.6,0.3-3.8,0.1c-0.8-0.1-1.6-0.3-2.3-0.6c-0.6,0.4-1.2,0.7-1.8,1c-5.1,2.3-12.5,2.9-18.8,1.7c-3.3-0.6-6.2-1.7-8.4-3.3
		c-0.6,0.5-1.4,0.9-2.1,1.3c-7.4,3.9-19.5,4.7-29.8,4.8c-20.5,0-41.1-1.5-60.9-4.6c-3-0.4-5.9-0.9-8.8-1.5c-1.5,1.3-4.3,2.2-7.3,2.5
		c-2.6,0.3-5.3,0.2-7.5-0.4c-0.9-0.2-1.8-0.6-2.5-1c-0.1-0.1-0.2-0.1-0.4-0.2c-0.2,0.3-0.4,0.5-0.6,0.8c-1.2,1.2-3,2.1-5.1,2.9
		c-3.9,1.3-8.9,2-13.5,2.3c-17.8,1.1-36-0.3-52.6-3.9c-1.3-0.3-2.5-0.5-3.7-0.8c-2.8,0.8-5.7,1.4-8.7,2c-2.5,0.5-5,0.9-7.5,1.2
		c-13.5-6.3-25.6-13.5-36.1-21.3c-4.1-3.1-8-6.3-11.6-9.6c-1.4-3-2.7-6-3.9-9c-0.8-2-1.5-3.9-2.3-5.9c-0.7-1.9-1.3-3.8-2-5.7
		c-0.2-0.7-0.5-1.4-0.7-2.1c-1-3-1.8-6.1-2.6-9.1c-0.7-2.8-1.4-5.6-2-8.5c-0.6-2.8-1.2-5.7-1.7-8.6c11.8-6.3,28.2-9.9,44.2-8.7
		c19.7,1.5,37.3,10.8,39,22c1.7-1.4,5.8-1.4,8.4-0.5c2.6,0.9,3.7,2.9,2.4,4.5c2.3-0.9,6-0.7,8.2,0.3c2,0.9,2.8,2.5,2.1,3.9
		c2-2.8,8.2-4.8,13.6-4.6c5.6,0.1,10.8,2.6,12,5.6c0.6-2.2,6.3-3.8,9.1-2.1c-1-1.9-1.5-4.5,1.3-5.9c2.7-1.3,6.8-1.7,10.1-0.9
		c-0.2-2.5,4.1-4.7,7.6-6.4c3.4-1.6,7.8-2.6,12.2-3.1c14.2-1.7,29.6,0.8,40.1,6.4c10.5,5.6,15.7,14.2,13.5,22.2
		c2.7-0.7,6.1,0.6,7.9,1.9c1.8,1.3,1.9,3.3,0.2,4.6c3.9-1.2,9.7-0.8,11,1.6c-1.2-1.7,1-4.3,3.5-5.4c2.5-1.1,6.2-1.1,8.8-0.2
		c0.1,0,0.1,0.1,0.2,0.1c-0.1,0-0.1-0.1-0.2-0.1c-1.2-0.7-2.2-2.4-1.4-3.1c0.8-0.8,2.5-1.2,4-1c0.1,0,0.2,0,0.3,0.1
		c0-0.1-0.1-0.2-0.1-0.3c-3.2-6.1-0.7-13,5.4-18.4c6.2-5.5,16.7-9.3,28.1-10.2c-0.1-1.7-0.3-2.4,2.5-3c2.8-0.6,6.1-0.1,8,1.2
		c-1.1-1.4-0.2-2.4,1.8-3.4c2-1,5.3-1.2,7.6-0.4c0.5-3.6,1.2-7.6,4.9-10.6c3.7-3,9.6-5.2,16.1-5.5c6.5-0.3,13.3,1.7,15.9,5
		c-0.1-1.1,1.4-1.3,3.3-1.7c1.9-0.4,4.2,0.1,5.3,1c1-6.3,10.5-11.2,21.8-11.7C388,206.8,394.4,207.9,399.8,210z"/>
	<path class="st4" d="M169.6,324.5c0,4.5-3.1,7.7-7.5,7.7h-7.5v-15.2c0,0,4.4,0,7.6,0C166.3,317.1,169.6,320.7,169.6,324.5z"/>
	<path class="st4" d="M372,241.7c-10.5,0.4-19.6,3.6-20.5,7.8c-1-0.6-3.2-0.9-5-0.7c-1.8,0.3-3.3,0.4-3.1,1.2
		c-2.5-2.2-8.9-3.5-15-3.3c-6.1,0.2-11.6,1.7-15.1,3.7c-3.5,2-4.2,4.7-4.6,7.1c-2.2-0.5-5.3-0.4-7.2,0.3c-1.9,0.7-2.8,1.3-1.7,2.3
		c-1.8-0.8-5-1.2-7.6-0.8c-2.6,0.4-2.4,0.9-2.3,2c-10.7,0.6-20.6,3.2-26.4,6.8c-1,0.6-1.9,1.3-2.7,2c-0.1,0.1-0.1,0.1-0.2,0.2
		c-1.2,1.1-2.1,2.2-2.7,3.4c0,0,0,0,0,0c-1.2,2.3-1,4.7,0.7,6.9c-1.5-0.2-3.3,0.1-4.1,0.6c0,0,0,0,0,0c-0.8,0.5,0.2,1.8,1.5,2.2
		c-2.5-0.7-6-0.7-8.5,0c-2.4,0.7-4.4,2.5-3.3,3.6c-1.1-1.4-5.4-1.8-8.9-1.3c-0.5,0.1-1,0.1-1.5,0.3c1.6-0.9,1.6-2.2-0.2-3.1
		c-1.7-0.9-5-1.7-7.5-1.3c2.1-5.4-2.8-11.1-12.6-14.8s-24.4-5.4-37.7-4.3c-4.2,0.3-8.3,1-11.5,2.1c-3.2,1.1-7.3,2.6-7.1,4.3
		c-3.1-0.5-7-0.3-9.5,0.6c-2.5,0.9-2.1,2.6-1.2,3.9c-2.6-1.1-7.9-0.1-8.5,1.4c-1.1-2-6-3.7-11.3-3.8c-5-0.1-10.9,1.2-12.8,3.1
		c0.7-0.9-0.1-2-2-2.6c-1.3-0.4-3.1-0.6-4.9-0.6c-1,0-2,0.1-2.8,0.4c1.3-1,0.2-2.4-2.2-3c-2.5-0.6-6.3-0.6-7.9,0.4
		c-0.3-1.6-1.3-3.1-2.8-4.5c-5.7-5.3-19.2-9.4-33.8-10.2c-14.1-0.8-28.6,1.3-39.5,5c-3,1-5.7,2.2-8.1,3.4c0.6,1.9,1.3,3.8,2,5.7
		c0.7,2,1.5,4,2.3,5.9c1.2,3,2.5,6.1,3.9,9c0.4,0.9,0.8,1.8,1.2,2.7c0.1,0.1,0.2,0.2,0.3,0.3c0.2,0.2,0.4,0.3,0.6,0.4
		c0.5,0.3,0.9,0.6,1.4,0.9c1.3,1,2.8,1.9,4.2,2.8c0.6,0.4,1.1,0.7,1.7,1.1c0.7,0.5,1.4,0.9,2.2,1.4c3.3,2,6.7,3.9,10.2,5.8
		c0.6,0.3,1.1,0.6,1.7,0.9c1.1,0.6,2.3,1.2,3.5,1.8c0.5,0.2,1,0.5,1.4,0.7c0.2,0.1,0.5,0.2,0.7,0.3c0.5,0.2,0.9,0.4,1.4,0.7
		c1.8,0.9,3.7,1.7,5.6,2.5c0.6,0.3,1.3,0.5,1.9,0.8c1,0.4,2,0.8,3,1.3c2.2,0.9,4.4,1.8,6.7,2.6c0.5,0.2,1.1,0.4,1.6,0.6
		c0.8,0.3,1.6,0.6,2.5,0.9c1.1,0.4,2.3,0.8,3.4,1.2c0.3,0.1,0.5,0.2,0.8,0.3c4-0.3,7.9-0.8,11.6-1.4c1.5-0.2,3.1-0.5,4.6-0.8
		c14.9,2.5,31.3,3.7,47.5,3.4c1.7,0,3.5-0.1,5.2-0.2c0.1,0,0.2,0,0.3,0c2.8-0.1,5.8-0.3,8.6-0.7c3.5-0.5,6.6-1.3,8.5-2.4
		c0.4-0.2,0.7-0.5,1-0.8c1.5,0.7,3.9,1.1,6.5,1.2c3.9,0.1,8.1-0.6,10-1.8c2,0.3,4,0.5,6.1,0.7c19.3,2.2,39.4,3.3,59.5,3.3
		c10.8,0,23.4-0.7,30-4c0.2,0.1,0.3,0.2,0.5,0.3c0.2,0.1,0.5,0.2,0.7,0.3c0.3,0.1,0.7,0.3,1.1,0.4c2.6,0.9,5.9,1.4,9.4,1.6
		c5.7,0.3,11.7-0.4,15.6-2.1c0.9,0.3,2,0.4,3.2,0.4c1.4,0,2.9-0.1,4.1-0.4c1-0.2,1.9-0.6,2.4-1c0.4,0.3,0.9,0.6,1.5,0.9
		c3.5,1.9,8.9,3.2,14.8,3.6c0.1,0,0.3,0,0.4,0c6.9,0.4,13.2-0.2,18.2-2.1c0.4,0.2,0.9,0.4,1.3,0.6c0.7-0.3,1.4-0.5,2.1-0.8
		c1.1-0.4,2.3-0.8,3.4-1.3c0.9-0.4,1.8-0.7,2.7-1.1c0.9-0.4,1.9-0.8,2.8-1.1s1.8-0.8,2.8-1.2c0.9-0.4,1.8-0.8,2.7-1.2
		c1.8-0.8,3.5-1.5,5.2-2.3c0.1,0,0.3-0.1,0.4-0.2c0.8-0.4,1.6-0.8,2.4-1.1c0.1,0,0.2-0.1,0.3-0.1c0.5-0.2,1-0.5,1.5-0.7
		c6-10.3,11.2-21.2,15.3-32.6c0.6-1.5,1.1-3.1,1.6-4.6c0.4-1.1,0.7-2.1,1.1-3.2c1.2-3.8,2.3-7.6,3.3-11.5c0.3-1.1,0.6-2.2,0.8-3.4
		C389.1,243.1,380.5,241.4,372,241.7z"/>
</g>
<g id="via">
</g>
<g id="Capa_1">
	<g id="via1">
		<polygon class="st5" points="267.8,312.3 221,84.2 179,84.2 130.1,322.4 85.3,306.5 159,9.3 200,6 241,9.3 314.5,305.8 		"/>
		<path class="st6" d="M179,81"/>
		<polygon class="st7" points="256.9,308.8 215.9,89.7 204,84.2 197,84.2 185.1,89.7 141.7,321.8 130.4,321 179.1,84.2 196.9,80.3 
			197,80.3 204,80.3 221.9,84.2 267.8,307.7 		"/>
		<polygon class="st7" points="197,77.4 196.9,77.5 196.9,77.4 		"/>
		<polygon class="st8" points="68.7,194.8 22.1,246.1 22,246 		"/>
		<path class="st8" d="M171,93c0,1.3-0.6,2.4-1.6,3.2L74,200l0,0l-62.1,68.1c-0.9-2.6-1.8-5.2-2.7-7.8l12.9-14.2l46.5-51.3
			l95.2-104.4l0.1-0.1c0.7-0.8,1.8-1.4,3-1.4C169.2,89,171,90.8,171,93z"/>
		<path class="st8" d="M164,134c0,1-0.4,1.9-1,2.6L46,304l-5-4l115.7-168.2v0c0.7-1.1,1.9-1.8,3.3-1.8C162.2,130,164,131.8,164,134z
			"/>
		<path class="st8" d="M156,181c0,1.2-0.5,2.3-1.4,3L69,349l-7-3l86.3-166.5l0,0l0.3-0.6c0.7-1.1,1.9-1.8,3.3-1.8
			C154.2,177,156,178.8,156,181z"/>
		<path class="st8" d="M144,235c0,0.9-0.3,1.7-0.8,2.4l-24.7,68.4l-8.1-3.2l25.6-68.6l0.3-0.8l0,0c0.7-1.3,2-2.2,3.6-2.2
			C142.2,231,144,232.8,144,235z"/>
		<path class="st8" d="M390.7,260.6c-0.3,1.1-0.7,2.2-1.1,3.2c-0.5,1.5-1,3.1-1.6,4.6L325.7,200l0,0L230.2,96.2
			c-1-0.7-1.6-1.9-1.6-3.2c0-2.2,1.8-4,4-4c1.2,0,2.3,0.5,3,1.4l0.1,0.1L331,194.8l46.5,51.3L390.7,260.6z"/>
		<path class="st8" d="M235.7,134c0,1,0.4,1.9,1,2.6l117,167.4l5-4L243,131.8v0c-0.7-1.1-1.9-1.8-3.3-1.8
			C237.5,130,235.7,131.8,235.7,134z"/>
		<path class="st8" d="M243.7,181c0,1.2,0.5,2.3,1.4,3l85.6,165l7-3l-86.3-166.5l0,0l-0.3-0.6c-0.7-1.1-1.9-1.8-3.3-1.8
			C245.5,177,243.7,178.8,243.7,181z"/>
		<path class="st8" d="M255.7,235c0,0.9,0.3,1.7,0.8,2.4l27.7,77l8-3.7L263.5,234l-0.3-0.8l0,0c-0.7-1.3-2-2.2-3.6-2.2
			C257.5,231,255.7,232.8,255.7,235z"/>
	</g>
	<g id="Python">
		
			<linearGradient id="path1948_1_" gradientUnits="userSpaceOnUse" x1="309.706" y1="370.7438" x2="373.7254" y2="315.6638" gradientTransform="matrix(0.5625 0 0 -0.568 -8.9623 223.4515)">
			<stop  offset="0" style="stop-color:#5A9FD4"/>
			<stop  offset="1" style="stop-color:#306998"/>
		</linearGradient>
		<path id="path1948" class="st9" d="M199.1,11c-2.7,0-5.3,0.2-7.5,0.6c-6.7,1.2-7.9,3.6-7.9,8.2v6h15.7v2h-15.7h-5.9
			c-4.6,0-8.6,2.8-9.8,8c-1.4,6-1.5,9.7,0,16c1.1,4.7,3.8,8,8.4,8h5.4v-7.2c0-5.2,4.5-9.8,9.8-9.8h15.7c4.4,0,7.9-3.6,7.9-8v-15
			c0-4.3-3.6-7.5-7.9-8.2C204.6,11.2,201.8,11,199.1,11z M190.6,15.8c1.6,0,3,1.3,3,3c0,1.7-1.3,3-3,3c-1.6,0-3-1.3-3-3
			C187.6,17.2,189,15.8,190.6,15.8z"/>
		
			<linearGradient id="path1950_1_" gradientUnits="userSpaceOnUse" x1="398.4757" y1="282.327" x2="375.6144" y2="314.6718" gradientTransform="matrix(0.5625 0 0 -0.568 -8.9623 223.4515)">
			<stop  offset="0" style="stop-color:#FFD43B"/>
			<stop  offset="1" style="stop-color:#FFE873"/>
		</linearGradient>
		<path id="path1950" class="st10" d="M217.2,27.8v7c0,5.4-4.6,10-9.8,10h-15.7c-4.3,0-7.9,3.7-7.9,8v15c0,4.3,3.7,6.8,7.9,8
			c5,1.5,9.8,1.7,15.7,0c4-1.1,7.9-3.5,7.9-8v-6h-15.7v-2h15.7h7.9c4.6,0,6.3-3.2,7.9-8c1.6-4.9,1.6-9.7,0-16c-1.1-4.6-3.3-8-7.9-8
			H217.2z M208.3,65.8c1.6,0,3,1.3,3,3c0,1.7-1.3,3-3,3c-1.6,0-3-1.3-3-3C205.4,67.1,206.7,65.8,208.3,65.8z"/>
	</g>
	<g id="via2">
		<polygon class="st7" points="221.6,325 218,322.9 204.9,226.3 201.6,224.3 199.7,224.3 196.4,226.3 183.3,322.9 179.7,325 
			194.8,224.3 199.7,222.8 199.7,222.8 201.6,222.8 206.5,224.3 		"/>
		<polygon class="st5" points="235,325 221.3,325 206.3,224.3 194.8,224.3 181.9,310 168.9,309.1 189.3,196.1 200.5,194.8 
			211.7,196.1 		"/>
	</g>
	<path class="st3" d="M89.6,308.1c-2.6,1.6-4.8,3.8-5.9,6.2c0.3-2.6-0.4-5.3-2.1-7.3C84.3,306.8,87.1,307.3,89.6,308.1z"/>
	<path class="st3" d="M239.1,328.6c-4.5,0-6.2,4.4-6.5,8.5h12.5l0.1,0.1C245.2,333,243.4,328.6,239.1,328.6z M239.1,328.6
		c-4.5,0-6.2,4.4-6.5,8.5h12.5l0.1,0.1C245.2,333,243.4,328.6,239.1,328.6z M239.1,328.6c-4.5,0-6.2,4.4-6.5,8.5h12.5l0.1,0.1
		C245.2,333,243.4,328.6,239.1,328.6z M302.5,340c-3.6,0-6.4,2.1-6.4,5.6c0,3.3,2.7,6.4,6.5,6.4c2.7,0.1,5.3-1.4,6.1-2.3v-9.8
		C307.3,339.9,304.8,339.9,302.5,340z M302.5,340c-3.6,0-6.4,2.1-6.4,5.6c0,3.3,2.7,6.4,6.5,6.4c2.7,0.1,5.3-1.4,6.1-2.3v-9.8
		C307.3,339.9,304.8,339.9,302.5,340z M239.1,328.6c-4.5,0-6.2,4.4-6.5,8.5h12.5l0.1,0.1C245.2,333,243.4,328.6,239.1,328.6z
		 M189.7,328.6c-4.5,0-6.2,4.4-6.5,8.5h12.5l0.1,0.1C195.8,333,194,328.6,189.7,328.6z M239.1,328.6c-4.5,0-6.2,4.4-6.5,8.5h12.5
		l0.1,0.1C245.2,333,243.4,328.6,239.1,328.6z M302.5,340c-3.6,0-6.4,2.1-6.4,5.6c0,3.3,2.7,6.4,6.5,6.4c2.7,0.1,5.3-1.4,6.1-2.3
		v-9.8C307.3,339.9,304.8,339.9,302.5,340z M302.5,340c-3.6,0-6.4,2.1-6.4,5.6c0,3.3,2.7,6.4,6.5,6.4c2.7,0.1,5.3-1.4,6.1-2.3v-9.8
		C307.3,339.9,304.8,339.9,302.5,340z M239.1,328.6c-4.5,0-6.2,4.4-6.5,8.5h12.5l0.1,0.1C245.2,333,243.4,328.6,239.1,328.6z
		 M189.7,328.6c-4.5,0-6.2,4.4-6.5,8.5h12.5l0.1,0.1C195.8,333,194,328.6,189.7,328.6z M101.1,317.1c-3.2,0-7.6,0-7.6,0v15.2h7.5
		c4.5,0,7.5-3.2,7.5-7.7C108.5,320.7,105.2,317.1,101.1,317.1z M162.2,317.1c-3.2,0-7.6,0-7.6,0v15.2h7.5c4.5,0,7.5-3.2,7.5-7.7
		C169.6,320.7,166.3,317.1,162.2,317.1z M189.7,328.6c-4.5,0-6.2,4.4-6.5,8.5h12.5l0.1,0.1C195.8,333,194,328.6,189.7,328.6z
		 M239.1,328.6c-4.5,0-6.2,4.4-6.5,8.5h12.5l0.1,0.1C245.2,333,243.4,328.6,239.1,328.6z M302.5,340c-3.6,0-6.4,2.1-6.4,5.6
		c0,3.3,2.7,6.4,6.5,6.4c2.7,0.1,5.3-1.4,6.1-2.3v-9.8C307.3,339.9,304.8,339.9,302.5,340z M302.5,340c-3.6,0-6.4,2.1-6.4,5.6
		c0,3.3,2.7,6.4,6.5,6.4c2.7,0.1,5.3-1.4,6.1-2.3v-9.8C307.3,339.9,304.8,339.9,302.5,340z M239.1,328.6c-4.5,0-6.2,4.4-6.5,8.5
		h12.5l0.1,0.1C245.2,333,243.4,328.6,239.1,328.6z M189.7,328.6c-4.5,0-6.2,4.4-6.5,8.5h12.5l0.1,0.1
		C195.8,333,194,328.6,189.7,328.6z M162.2,317.1c-3.2,0-7.6,0-7.6,0v15.2h7.5c4.5,0,7.5-3.2,7.5-7.7
		C169.6,320.7,166.3,317.1,162.2,317.1z M101.1,317.1c-3.2,0-7.6,0-7.6,0v15.2h7.5c4.5,0,7.5-3.2,7.5-7.7
		C108.5,320.7,105.2,317.1,101.1,317.1z M101.1,317.1c-3.2,0-7.6,0-7.6,0v15.2h7.5c4.5,0,7.5-3.2,7.5-7.7
		C108.5,320.7,105.2,317.1,101.1,317.1z M162.2,317.1c-3.2,0-7.6,0-7.6,0v15.2h7.5c4.5,0,7.5-3.2,7.5-7.7
		C169.6,320.7,166.3,317.1,162.2,317.1z M189.7,328.6c-4.5,0-6.2,4.4-6.5,8.5h12.5l0.1,0.1C195.8,333,194,328.6,189.7,328.6z
		 M239.1,328.6c-4.5,0-6.2,4.4-6.5,8.5h12.5l0.1,0.1C245.2,333,243.4,328.6,239.1,328.6z M302.5,340c-3.6,0-6.4,2.1-6.4,5.6
		c0,3.3,2.7,6.4,6.5,6.4c2.7,0.1,5.3-1.4,6.1-2.3v-9.8C307.3,339.9,304.8,339.9,302.5,340z M101.1,317.1c-3.2,0-7.6,0-7.6,0v15.2
		h7.5c4.5,0,7.5-3.2,7.5-7.7C108.5,320.7,105.2,317.1,101.1,317.1z M162.2,317.1c-3.2,0-7.6,0-7.6,0v15.2h7.5c4.5,0,7.5-3.2,7.5-7.7
		C169.6,320.7,166.3,317.1,162.2,317.1z M189.7,328.6c-4.5,0-6.2,4.4-6.5,8.5h12.5l0.1,0.1C195.8,333,194,328.6,189.7,328.6z
		 M239.1,328.6c-4.5,0-6.2,4.4-6.5,8.5h12.5l0.1,0.1C245.2,333,243.4,328.6,239.1,328.6z M302.5,340c-3.6,0-6.4,2.1-6.4,5.6
		c0,3.3,2.7,6.4,6.5,6.4c2.7,0.1,5.3-1.4,6.1-2.3v-9.8C307.3,339.9,304.8,339.9,302.5,340z M384.7,257.8c-1.6-5.3-7.5-7.7-12.8-6.3
		c-0.3,0.1-0.6,0.2-1,0.3c-5.5,1.9-9.3,7.2-10.9,12.8c-1.6,5.6-1.4,11.6-1.2,17.4c-2.1-1.8-3.3-1.5-5.6-0.1c-1.8,1-3,3-3.3,5.1
		c-0.6-2.3-2.9-4.9-4.8-5.7c-2.5-1.1-5.8,0-7.2,2.3c-0.9-2.8-3.7-4.8-6.7-4.7c-2.9,0.1-5.6,2.4-6.3,5.2c1.4-7.8-5.8-17.2-13.4-19.6
		c-7.6-2.4-16.3,0.8-21.4,6.9c-5,6.2-6.4,14.8-4.5,22.5c-3.1-2.8-8.6-2.9-11.9-0.4c-0.6,0.4-1.1,0.9-1.5,1.4c-1.7,2-2.4,4.7-2.1,7.3
		c-1.1-2.5-3.3-4.7-5.9-6.2c-4.6,1.6-8.3,4.8-9.5,8.6c-1.3-3.2-4.4-5.4-8.1-6.4c-1.8-0.5-3.8-0.8-5.8-0.8c-1.7,0-3.5,0.2-5.1,0.7
		c-5.2,1.4-9.2,4.4-12,8.1c-1.4,1.8-2.4,3.8-3.2,5.7c-0.8,2.1-1.3,4.3-1.5,6.5c-0.3-0.6-0.8-1.1-1.4-1.5c0.9-1.8,0.7-4.1-0.6-5.7
		c-1.2-1.6-3.5-3-5.5-2.6c0.3-3.3-1.7-6.7-4.7-8.2s-7.1-0.8-9.6,1.5c-1.3-5.7-7.5-9.4-13.3-9c-5.8,0.4-11.1,4.1-14.6,8.7
		c-0.2,0.3-0.5,0.6-0.7,0.9c-2.4-2-5.2-3.5-8.5-4.4c-3.6-1-7.6-0.9-11,0.1c-3.8,1.1-6.9,3.3-8.1,6.4c-1.2-3.8-4.9-6.9-9.5-8.6
		c-2.6,1.6-4.8,3.8-5.9,6.2c0.3-2.6-0.4-5.3-2.1-7.3c-0.4-0.5-1-1-1.5-1.4c-3.4-2.5-8.8-2.4-11.9,0.4c1.4-5.4,1.1-11.2-0.9-16.4
		c-0.9-2.2-2-4.3-3.6-6.2c-2.7-3.3-6.4-5.7-10.5-6.9c-3.5-1-7.3-1.1-10.8,0c-7.6,2.4-14.8,11.8-13.4,19.6c-0.7-2.8-3.4-5.1-6.3-5.2
		c-2.9-0.1-5.8,1.9-6.7,4.7c-1.4-2.3-4.7-3.4-7.2-2.3c-2,0.8-4.2,3.4-4.8,5.7c-0.2-2.1-1.4-4.1-3.3-5.1c-2.4-1.4-3.6-1.7-5.6,0.1
		c0.2-5.8,0.4-11.8-1.2-17.4c-1.1-3.8-3.2-7.5-6.2-10.1c-1.4-1.2-3-2.1-4.7-2.7c-5.5-1.9-12,0.5-13.8,6c-0.6-2.7-2.3-5-4.5-6.6
		c2.1,7.8,4.6,15.4,7.5,22.8c0,0,0,0,0,0c0,0.1,0.1,0.3,0.2,0.4c0.7,1.6,1.3,3.3,2,4.9c0.1,0.3,0.3,0.6,0.4,1
		c0.8,1.8,1.6,3.6,2.4,5.3c0.5,1,0.9,1.9,1.4,2.8c0.9,1.8,1.8,3.7,2.8,5.5c0.3,0.6,0.6,1.2,1,1.8c0.2,0.5,0.5,0.9,0.8,1.4
		c0.1,0.3,0.3,0.5,0.4,0.8c0.3,0.6,0.6,1.1,0.9,1.6c0.5,0.9,1,1.8,1.6,2.7c1,1.6,2,3.3,3,4.9c0.2,0.3,0.4,0.6,0.5,0.8
		c0.4,0.6,0.8,1.2,1.2,1.8c1.2,1.9,2.5,3.7,3.8,5.5c0.5,0.7,1,1.4,1.5,2.1c3.5,4.8,7.2,9.4,11.1,13.9c0.5,0.6,1,1.2,1.5,1.7
		c1,1.2,2.1,2.3,3.1,3.4c0.4,0.5,0.9,0.9,1.3,1.4c0.2,0.2,0.4,0.4,0.6,0.6c0.4,0.4,0.8,0.9,1.3,1.3c1.6,1.7,3.3,3.3,5,5
		c0.6,0.5,1.1,1.1,1.7,1.6c0.9,0.8,1.8,1.7,2.7,2.5c2,1.8,3.9,3.5,6,5.1c0.5,0.4,1,0.8,1.5,1.2c0.7,0.6,1.5,1.2,2.2,1.8
		c1.2,1,2.5,1.9,3.7,2.9c4.3,3.3,8.8,6.3,13.3,9.2h0c0.6,0.4,1.2,0.8,1.9,1.2c0.6,0.4,1.1,0.7,1.7,1c0.2,0.1,0.3,0.2,0.5,0.3
		c0.6,0.4,1.3,0.8,1.9,1.1c0.1,0.1,0.3,0.2,0.4,0.3c0.7,0.4,1.4,0.8,2.1,1.2c1,0.6,2.1,1.2,3.1,1.8c0.5,0.3,1.1,0.6,1.6,0.9
		c2.4,1.3,4.8,2.5,7.3,3.7c7.8,3.7,15.8,7,24.1,9.7h0c4.5,1.5,9.2,2.8,13.8,4C167,398,183.3,400,200,400c16.2,0,31.9-1.9,47-5.6h0
		c6.3-1.5,12.5-3.4,18.6-5.5c0,0,0,0,0,0c6.7-2.3,13.2-5,19.6-8c1.1-0.5,2.2-1,3.3-1.6c0.8-0.4,1.5-0.8,2.3-1.2
		c0.7-0.3,1.4-0.7,2.1-1.1c0.7-0.4,1.4-0.7,2.1-1.1c0.1,0,0.2-0.1,0.3-0.1c0.6-0.3,1.3-0.7,1.9-1c0.6-0.4,1.3-0.7,1.9-1.1
		c0.7-0.4,1.3-0.8,2-1.2c2-1.2,4-2.4,6-3.6c5.6-3.5,10.9-7.3,16.1-11.4c0.6-0.5,1.2-1,1.8-1.5c1-0.8,2-1.6,3-2.5
		c0.8-0.7,1.6-1.4,2.4-2.1c0.8-0.7,1.7-1.5,2.5-2.2c0.8-0.7,1.6-1.5,2.5-2.2c0.8-0.8,1.6-1.5,2.4-2.3c1.6-1.5,3.1-3,4.6-4.5
		c0.1-0.1,0.2-0.2,0.3-0.3c0.7-0.7,1.4-1.5,2.1-2.2c0.1-0.1,0.2-0.2,0.2-0.3c0.7-0.7,1.4-1.5,2-2.2c0.8-0.8,1.5-1.6,2.2-2.5
		c0.7-0.8,1.3-1.5,2-2.3c0.2-0.2,0.3-0.4,0.5-0.6c0.6-0.7,1.2-1.4,1.8-2.1c1.5-1.7,2.9-3.5,4.2-5.3c0.7-0.8,1.3-1.7,2-2.6
		c0.7-0.9,1.4-1.9,2.1-2.8c0.6-0.8,1.2-1.7,1.8-2.5c0.6-0.8,1.1-1.6,1.7-2.4c0.6-0.8,1.1-1.7,1.7-2.5c0.4-0.5,0.7-1.1,1-1.6
		c0.1-0.2,0.2-0.3,0.3-0.5c0.4-0.6,0.7-1.2,1.1-1.7c0.5-0.9,1.1-1.8,1.6-2.6c0.5-0.8,0.9-1.5,1.4-2.3c1.6-2.6,3.1-5.3,4.5-8.1
		c0.3-0.5,0.5-1,0.8-1.4c0.4-0.7,0.7-1.4,1.1-2.1c0.3-0.6,0.7-1.3,1-2c0.1-0.1,0.1-0.3,0.2-0.4c0.3-0.6,0.6-1.3,0.9-1.9
		c0.9-1.9,1.8-3.8,2.6-5.7c0.4-0.8,0.7-1.7,1.1-2.5c0.1-0.3,0.2-0.5,0.3-0.8c0.4-0.9,0.7-1.7,1.1-2.6c0.3-0.7,0.6-1.5,0.9-2.2
		c0.2-0.5,0.4-1,0.5-1.5c0.1-0.2,0.1-0.3,0.2-0.5c0.3-0.8,0.5-1.5,0.8-2.3c0.3-0.9,0.6-1.8,0.9-2.7c0.1-0.2,0.1-0.3,0.2-0.5
		c1.6-4.8,3.1-9.7,4.3-14.7C389.6,250,385.7,253.4,384.7,257.8z M301.2,337h7.7v-2.8c0-3.3-3-5.5-6.2-5.5c-2.9,0-4.9,0.7-7.5,2
		l-1.2-2.7c3.4-1.8,6-2.5,9.9-2.5c4.8,0,9.4,3.1,9.4,8.4v16.4c-2.7,2.7-7.2,4.9-12.8,4.9c-5.1-0.1-9.4-4.2-9.2-9.4
		C291.4,340.3,295.7,336.9,301.2,337z M271.5,331c1.8-2,4.1-3.5,6.8-4.4c2.9-1,5.6-1.7,9.5-1c-0.6,1.2-1.4,2.7-1.9,3.8
		c-0.9-0.2-2-0.4-2.7-0.4h-0.1c-3.1,0-5.3,1.2-7,2.6v23h-4.7V331z M257.5,316.3c0-1.7,1.4-3,3.1-3c1.7,0,3,1.4,3,3.1
		c0,1.7-1.4,3-3.1,3C258.8,319.4,257.5,318,257.5,316.3L257.5,316.3z M249.9,339.9h-17.4c-0.5,7.4,3.3,12.4,8.6,12.2
		c3.3-0.1,5.6-1.2,8-2.3l1.1,2.3c-1.5,1-3,1.8-4.9,2.4c-4.1,1.2-9.4,1.2-12.8-1.6c-3.1-2.7-5-7.2-5-12c0.1-7.5,3.1-15.2,11.4-15.2
		C246.9,325.7,249.8,331.2,249.9,339.9z M207.6,331c1.8-2,4.1-3.5,6.8-4.4c2.8-1,5.6-1.7,9.5-1c-0.6,1.2-1.4,2.7-1.9,3.8
		c-0.9-0.2-2-0.4-2.7-0.4h-0.1c-3.1,0-5.3,1.2-7,2.6v23h-4.8V331z M189.5,325.7c7.9,0,10.9,5.5,11,14.2h-17.4
		c-0.5,7.4,3.3,12.4,8.6,12.2c3.3-0.1,5.6-1.2,8-2.3l1.1,2.3c-1.5,1-3,1.8-4.9,2.4c-4.1,1.2-9.4,1.2-12.8-1.6c-3.1-2.7-5-7.2-5-12
		C178.2,333.4,181.2,325.7,189.5,325.7z M149.8,313.7c0,0,7.7,0,12.9-0.1c6.6,0.1,11.6,4.9,11.6,11c0,6.2-4.7,10.8-10.9,10.8h-8.9
		v19.2h-4.8V313.7z M88.7,313.7c0,0,7.7,0,12.9-0.1c6.6,0.1,11.6,4.9,11.6,11c0,6.2-4.7,10.8-10.9,10.8h-8.9v19.2h-4.8V313.7z
		 M140.7,363c-2.4,4.5-9.2,6.4-14,6.5l-0.8-3c3.5-0.5,8.5-1,10.6-4.4c0.1-0.1,0.1-0.2,0.2-0.3c1-1.8,1-5.4,1-7.5
		c0-0.7,0.1-0.5,0-1.2c-1.4,0.6-4.6,2.2-10.2,2.2c-4.3,0-9.2-3.1-9.2-8.3v-19.8l4.8-1.6v19.9c0,4.4,3.1,6.6,7.3,6.6
		c2.5-0.1,5.4-1.5,7-2.5v-23.2h4.7V352c0,2.9-0.1,7-1.1,9.7C141.1,362.2,140.9,362.6,140.7,363z M258.3,354.7v-27.6l4.7-1.6v29.2
		H258.3z M302.6,352c2.7,0.1,5.3-1.4,6.1-2.3v-9.8c-1.5,0-3.9,0-6.2,0.1c-3.6,0-6.4,2.1-6.4,5.6C296.1,348.9,298.9,352,302.6,352z
		 M232.6,337.1h12.5l0.1,0.1c0-4.2-1.8-8.6-6-8.6C234.6,328.6,233,333,232.6,337.1z M195.8,337.2c0-4.2-1.8-8.6-6-8.6
		c-4.5,0-6.2,4.4-6.5,8.5L195.8,337.2L195.8,337.2z M169.6,324.5c0-3.8-3.3-7.5-7.4-7.5c-3.2,0-7.6,0-7.6,0v15.2h7.5
		C166.5,332.3,169.6,329.1,169.6,324.5z M108.5,324.5c0-3.8-3.3-7.5-7.4-7.5c-3.2,0-7.6,0-7.6,0v15.2h7.5
		C105.4,332.3,108.5,329.1,108.5,324.5z M101.1,317.1c-3.2,0-7.6,0-7.6,0v15.2h7.5c4.5,0,7.5-3.2,7.5-7.7
		C108.5,320.7,105.2,317.1,101.1,317.1z M162.2,317.1c-3.2,0-7.6,0-7.6,0v15.2h7.5c4.5,0,7.5-3.2,7.5-7.7
		C169.6,320.7,166.3,317.1,162.2,317.1z M189.7,328.6c-4.5,0-6.2,4.4-6.5,8.5h12.5l0.1,0.1C195.8,333,194,328.6,189.7,328.6z
		 M239.1,328.6c-4.5,0-6.2,4.4-6.5,8.5h12.5l0.1,0.1C245.2,333,243.4,328.6,239.1,328.6z M302.5,340c-3.6,0-6.4,2.1-6.4,5.6
		c0,3.3,2.7,6.4,6.5,6.4c2.7,0.1,5.3-1.4,6.1-2.3v-9.8C307.3,339.9,304.8,339.9,302.5,340z M302.5,340c-3.6,0-6.4,2.1-6.4,5.6
		c0,3.3,2.7,6.4,6.5,6.4c2.7,0.1,5.3-1.4,6.1-2.3v-9.8C307.3,339.9,304.8,339.9,302.5,340z M239.1,328.6c-4.5,0-6.2,4.4-6.5,8.5
		h12.5l0.1,0.1C245.2,333,243.4,328.6,239.1,328.6z M189.7,328.6c-4.5,0-6.2,4.4-6.5,8.5h12.5l0.1,0.1
		C195.8,333,194,328.6,189.7,328.6z M162.2,317.1c-3.2,0-7.6,0-7.6,0v15.2h7.5c4.5,0,7.5-3.2,7.5-7.7
		C169.6,320.7,166.3,317.1,162.2,317.1z M101.1,317.1c-3.2,0-7.6,0-7.6,0v15.2h7.5c4.5,0,7.5-3.2,7.5-7.7
		C108.5,320.7,105.2,317.1,101.1,317.1z M101.1,317.1c-3.2,0-7.6,0-7.6,0v15.2h7.5c4.5,0,7.5-3.2,7.5-7.7
		C108.5,320.7,105.2,317.1,101.1,317.1z M189.7,328.6c-4.5,0-6.2,4.4-6.5,8.5h12.5l0.1,0.1C195.8,333,194,328.6,189.7,328.6z
		 M239.1,328.6c-4.5,0-6.2,4.4-6.5,8.5h12.5l0.1,0.1C245.2,333,243.4,328.6,239.1,328.6z M302.5,340c-3.6,0-6.4,2.1-6.4,5.6
		c0,3.3,2.7,6.4,6.5,6.4c2.7,0.1,5.3-1.4,6.1-2.3v-9.8C307.3,339.9,304.8,339.9,302.5,340z M302.5,340c-3.6,0-6.4,2.1-6.4,5.6
		c0,3.3,2.7,6.4,6.5,6.4c2.7,0.1,5.3-1.4,6.1-2.3v-9.8C307.3,339.9,304.8,339.9,302.5,340z M239.1,328.6c-4.5,0-6.2,4.4-6.5,8.5
		h12.5l0.1,0.1C245.2,333,243.4,328.6,239.1,328.6z M189.7,328.6c-4.5,0-6.2,4.4-6.5,8.5h12.5l0.1,0.1
		C195.8,333,194,328.6,189.7,328.6z M101.1,317.1c-3.2,0-7.6,0-7.6,0v15.2h7.5c4.5,0,7.5-3.2,7.5-7.7
		C108.5,320.7,105.2,317.1,101.1,317.1z M239.1,328.6c-4.5,0-6.2,4.4-6.5,8.5h12.5l0.1,0.1C245.2,333,243.4,328.6,239.1,328.6z
		 M302.5,340c-3.6,0-6.4,2.1-6.4,5.6c0,3.3,2.7,6.4,6.5,6.4c2.7,0.1,5.3-1.4,6.1-2.3v-9.8C307.3,339.9,304.8,339.9,302.5,340z
		 M302.5,340c-3.6,0-6.4,2.1-6.4,5.6c0,3.3,2.7,6.4,6.5,6.4c2.7,0.1,5.3-1.4,6.1-2.3v-9.8C307.3,339.9,304.8,339.9,302.5,340z
		 M239.1,328.6c-4.5,0-6.2,4.4-6.5,8.5h12.5l0.1,0.1C245.2,333,243.4,328.6,239.1,328.6z M239.1,328.6c-4.5,0-6.2,4.4-6.5,8.5h12.5
		l0.1,0.1C245.2,333,243.4,328.6,239.1,328.6z M239.1,328.6c-4.5,0-6.2,4.4-6.5,8.5h12.5l0.1,0.1C245.2,333,243.4,328.6,239.1,328.6
		z"/>
	<path class="st3" d="M189.1,390.4c-4.3,1.1-9.1,1.1-13.4,0c1.7-0.4,3.3-0.8,5-1.2C183.1,390.5,186.2,390.9,189.1,390.4z"/>
	<path class="st3" d="M195.6,387.2c0.1,0.1,0.2,0.1,0.3,0.2c-0.7,0.5-1.4,0.9-2.1,1.2C194.5,388.2,195.1,387.8,195.6,387.2z"/>
	<path class="st3" d="M198.1,388.7c1.5,0.7,3,1.3,4.6,1.7C201,390.1,199.4,389.5,198.1,388.7z"/>
	<path class="st3" d="M189.1,390.4c1.6-0.4,3.2-1,4.7-1.7C192.4,389.5,190.8,390.1,189.1,390.4z"/>
	<path class="st3" d="M196.2,387.2c0.5,0.5,1.1,1,1.8,1.4c-0.7-0.4-1.4-0.8-2.1-1.2C196,387.3,196.1,387.3,196.2,387.2z"/>
	<path class="st3" d="M211.2,389.2c1.7,0.4,3.3,0.9,5,1.2c-4.3,1-9.1,1-13.4,0C205.7,390.9,208.8,390.5,211.2,389.2z"/>
	<g>
	</g>
	<g>
	</g>
	<g>
	</g>
	<g>
	</g>
	<g>
	</g>
	<g>
	</g>
	<g>
	</g>
	<g>
	</g>
	<g>
	</g>
	<g>
	</g>
	<g>
	</g>
	<g>
	</g>
	<g>
	</g>
	<g>
	</g>
	<g>
	</g>
</g>
</svg>
